# xmcd
#
# Track frame offsets:
#	150
#	22443
#	48504
#	72551
#	103939
#	119893
#	146133
#	165671
#	190213
#	211707
#
# Disc length: 3108 seconds
#
# Revision: 1
# Processed by: cddbd v1.5.2PL0 Copyright (c) Steve Scherf et al.
# Submitted via: audiograbber 1.83.01
#
DISCID=a40c220a
DTITLE=The Nightcrawlers - it´s the devil in me
DYEAR=2009
DGENRE=Blues
TTITLE0=it´s the devil in me
TTITLE1=fake
TTITLE2=kiss me ass
TTITLE3=feel the need
TTITLE4=leave me alone
TTITLE5=journeyman
TTITLE6=simple man
TTITLE7=little miss lonely heart
TTITLE8=nightcrawler
TTITLE9=south of the liffey
EXTD=
EXTT0=
EXTT1=
EXTT2=
EXTT3=
EXTT4=
EXTT5=
EXTT6=
EXTT7=
EXTT8=
EXTT9=
PLAYORDER=
